{
	"asset":{
		"generator":"Khronos glTF Blender I/O v4.1.63",
		"version":"2.0"
	},
	"scene":0,
	"scenes":[
		{
			"name":"Scene",
			"nodes":[
				0,
				1
			]
		}
	],
	"nodes":[
		{
			"mesh":0,
			"name":"Sphere",
			"scale":[
				0.9465106129646301,
				0.9465106129646301,
				0.9465106129646301
			],
			"translation":[
				-0.007492437027394772,
				-0.03060203790664673,
				0.0023460837546736
			]
		},
		{
			"name":"Empty",
			"rotation":[
				0.7071068286895752,
				0,
				0,
				0.7071068286895752
			],
			"translation":[
				-0.006499648094177246,
				-0.019562363624572754,
				-11.985904693603516
			]
		}
	],
	"materials":[
		{
			"doubleSided":true,
			"name":"Material.004",
			"pbrMetallicRoughness":{
				"baseColorTexture":{
					"index":0
				},
				"metallicFactor":0,
				"roughnessFactor":0.5
			}
		},
		{
			"name":"Line",
			"pbrMetallicRoughness":{}
		}
	],
	"meshes":[
		{
			"name":"Sphere.002",
			"primitives":[
				{
					"attributes":{
						"POSITION":0,
						"NORMAL":1,
						"TEXCOORD_0":2
					},
					"indices":3,
					"material":0
				},
				{
					"attributes":{
						"POSITION":4,
						"NORMAL":5,
						"TEXCOORD_0":6
					},
					"indices":7,
					"material":1
				}
			]
		}
	],
	"textures":[
		{
			"sampler":0,
			"source":0
		}
	],
	"images":[
		{
			"mimeType":"image/png",
			"name":"Sphere Base Color",
			"uri":"Sphere%20Base%20Color.png"
		}
	],
	"accessors":[
		{
			"bufferView":0,
			"componentType":5126,
			"count":14635,
			"max":[
				2.164046049118042,
				2.0993165969848633,
				2.049943685531616
			],
			"min":[
				-2.164046287536621,
				-2.323974609375,
				-1.8799779415130615
			],
			"type":"VEC3"
		},
		{
			"bufferView":1,
			"componentType":5126,
			"count":14635,
			"type":"VEC3"
		},
		{
			"bufferView":2,
			"componentType":5126,
			"count":14635,
			"type":"VEC2"
		},
		{
			"bufferView":3,
			"componentType":5123,
			"count":55584,
			"type":"SCALAR"
		},
		{
			"bufferView":4,
			"componentType":5126,
			"count":12637,
			"max":[
				2.244004487991333,
				2.172689914703369,
				2.049943685531616
			],
			"min":[
				-2.244004726409912,
				-2.4025914669036865,
				-1.9599778652191162
			],
			"type":"VEC3"
		},
		{
			"bufferView":5,
			"componentType":5126,
			"count":12637,
			"type":"VEC3"
		},
		{
			"bufferView":6,
			"componentType":5126,
			"count":12637,
			"type":"VEC2"
		},
		{
			"bufferView":7,
			"componentType":5123,
			"count":52608,
			"type":"SCALAR"
		}
	],
	"bufferViews":[
		{
			"buffer":0,
			"byteLength":175620,
			"byteOffset":0,
			"target":34962
		},
		{
			"buffer":0,
			"byteLength":175620,
			"byteOffset":175620,
			"target":34962
		},
		{
			"buffer":0,
			"byteLength":117080,
			"byteOffset":351240,
			"target":34962
		},
		{
			"buffer":0,
			"byteLength":111168,
			"byteOffset":468320,
			"target":34963
		},
		{
			"buffer":0,
			"byteLength":151644,
			"byteOffset":579488,
			"target":34962
		},
		{
			"buffer":0,
			"byteLength":151644,
			"byteOffset":731132,
			"target":34962
		},
		{
			"buffer":0,
			"byteLength":101096,
			"byteOffset":882776,
			"target":34962
		},
		{
			"buffer":0,
			"byteLength":105216,
			"byteOffset":983872,
			"target":34963
		}
	],
	"samplers":[
		{
			"magFilter":9729,
			"minFilter":9987
		}
	],
	"buffers":[
		{
			"byteLength":1089088,
			"uri":"BATTLE%20CATS.bin"
		}
	]
}
